# xmcd
#
# Track frame offsets: 
#        150
#        16090
#        39100
#        57997
#        80170
#        100143
#        116096
#        137380
#        155403
#        185500
#        205540
#        217226
#        244961
#        265404
#        282623
#
# Disc length: 4023 seconds
#
# Revision: 7
# Processed by: cddbd v1.5.2PL0 Copyright (c) Steve Scherf et al.
# Submitted via: ExactAudioCopyFreeDBPlugin 1.0
#
DISCID=d80fb50f
DTITLE=Premium Records - Best Audiophile Voices Selection
DYEAR=2006
DGENRE=Jazz
TTITLE0=Emi Fujita - Desperado
TTITLE1=Eva Cassidy - What a wonderful world
TTITLE2=Stacey Kent - What the world needs now is love
TTITLE3=Jheena Lodwick - Perhaps love
TTITLE4=Corrinne May - Fly away
TTITLE5=Salena Jones - You don't bring me flowers
TTITLE6=Eva Cassidy - Fields of gold
TTITLE7=Dave's True Story - Marisa
TTITLE8=Jane Monheit - Over the rainbow
TTITLE9=Andrea Zonn - Better be home soon
TTITLE10=Marianna Leporace - If
TTITLE11=Jean Frye Sidwell - I left my heart in San Francisco
TTITLE12=Carol Kidd - When I dream
TTITLE13=Alison Krauss and Union Station - When you say nothing at all
TTITLE14=Jeanette Lindstrom and Steve Dobrogosz - The look of love
EXTD=
EXTT0=
EXTT1=
EXTT2=
EXTT3=
EXTT4=
EXTT5=
EXTT6=
EXTT7=
EXTT8=
EXTT9=
EXTT10=
EXTT11=
EXTT12=
EXTT13=
EXTT14=
PLAYORDER=
